<?xml version="1.0" encoding="UTF-8"?>
<svg xmlns="http://www.w3.org/2000/svg" xmlns:xlink="http://www.w3.org/1999/xlink" width="1670pt" height="833pt" viewBox="0 0 1670 833" version="1.1">
<g id="surface6">
<path style="fill:none;stroke-width:0.02;stroke-linecap:butt;stroke-linejoin:miter;stroke:rgb(0%,0%,0%);stroke-opacity:1;stroke-miterlimit:10;" d="M -6.000004 0 C -2.116657 0 1.76666 0 5.650006 0 " transform="matrix(134.934165,0,0,-134.866827,835,416.5)"/>
<path style="fill-rule:nonzero;fill:rgb(0%,0%,0%);fill-opacity:1;stroke-width:0.02;stroke-linecap:butt;stroke-linejoin:miter;stroke:rgb(0%,0%,0%);stroke-opacity:1;stroke-miterlimit:10;" d="M 6.000004 0 C 5.883338 0.058333 5.766672 0.116666 5.650006 0.174999 C 5.650006 0.058333 5.650006 -0.058333 5.650006 -0.174999 C 5.766672 -0.116666 5.883338 -0.058333 6.000004 0 Z M 6.000004 0 " transform="matrix(134.934165,0,0,-134.866827,835,416.5)"/>
<path style="fill:none;stroke-width:0.02;stroke-linecap:butt;stroke-linejoin:miter;stroke:rgb(0%,0%,0%);stroke-opacity:1;stroke-miterlimit:10;" d="M -6.000004 -0.100012 C -6.000004 -0.0333373 -6.000004 0.0333373 -6.000004 0.100012 " transform="matrix(134.934165,0,0,-134.866827,835,416.5)"/>
<path style="fill:none;stroke-width:0.02;stroke-linecap:butt;stroke-linejoin:miter;stroke:rgb(0%,0%,0%);stroke-opacity:1;stroke-miterlimit:10;" d="M -5.142844 -0.100012 C -5.142844 -0.0333373 -5.142844 0.0333373 -5.142844 0.100012 " transform="matrix(134.934165,0,0,-134.866827,835,416.5)"/>
<path style="fill:none;stroke-width:0.02;stroke-linecap:butt;stroke-linejoin:miter;stroke:rgb(0%,0%,0%);stroke-opacity:1;stroke-miterlimit:10;" d="M -4.285713 -0.100012 C -4.285713 -0.0333373 -4.285713 0.0333373 -4.285713 0.100012 " transform="matrix(134.934165,0,0,-134.866827,835,416.5)"/>
<path style="fill:none;stroke-width:0.02;stroke-linecap:butt;stroke-linejoin:miter;stroke:rgb(0%,0%,0%);stroke-opacity:1;stroke-miterlimit:10;" d="M -3.428582 -0.100012 C -3.428582 -0.0333373 -3.428582 0.0333373 -3.428582 0.100012 " transform="matrix(134.934165,0,0,-134.866827,835,416.5)"/>
<path style="fill:none;stroke-width:0.02;stroke-linecap:butt;stroke-linejoin:miter;stroke:rgb(0%,0%,0%);stroke-opacity:1;stroke-miterlimit:10;" d="M -2.571422 -0.100012 C -2.571422 -0.0333373 -2.571422 0.0333373 -2.571422 0.100012 " transform="matrix(134.934165,0,0,-134.866827,835,416.5)"/>
<path style="fill:none;stroke-width:0.02;stroke-linecap:butt;stroke-linejoin:miter;stroke:rgb(0%,0%,0%);stroke-opacity:1;stroke-miterlimit:10;" d="M -1.714291 -0.100012 C -1.714291 -0.0333373 -1.714291 0.0333373 -1.714291 0.100012 " transform="matrix(134.934165,0,0,-134.866827,835,416.5)"/>
<path style="fill:none;stroke-width:0.02;stroke-linecap:butt;stroke-linejoin:miter;stroke:rgb(0%,0%,0%);stroke-opacity:1;stroke-miterlimit:10;" d="M -0.857131 -0.100012 C -0.857131 -0.0333373 -0.857131 0.0333373 -0.857131 0.100012 " transform="matrix(134.934165,0,0,-134.866827,835,416.5)"/>
<path style="fill:none;stroke-width:0.02;stroke-linecap:butt;stroke-linejoin:miter;stroke:rgb(0%,0%,0%);stroke-opacity:1;stroke-miterlimit:10;" d="M 0.857131 -0.100012 C 0.857131 -0.0333373 0.857131 0.0333373 0.857131 0.100012 " transform="matrix(134.934165,0,0,-134.866827,835,416.5)"/>
<path style="fill:none;stroke-width:0.02;stroke-linecap:butt;stroke-linejoin:miter;stroke:rgb(0%,0%,0%);stroke-opacity:1;stroke-miterlimit:10;" d="M 1.714291 -0.100012 C 1.714291 -0.0333373 1.714291 0.0333373 1.714291 0.100012 " transform="matrix(134.934165,0,0,-134.866827,835,416.5)"/>
<path style="fill:none;stroke-width:0.02;stroke-linecap:butt;stroke-linejoin:miter;stroke:rgb(0%,0%,0%);stroke-opacity:1;stroke-miterlimit:10;" d="M 2.571422 -0.100012 C 2.571422 -0.0333373 2.571422 0.0333373 2.571422 0.100012 " transform="matrix(134.934165,0,0,-134.866827,835,416.5)"/>
<path style="fill:none;stroke-width:0.02;stroke-linecap:butt;stroke-linejoin:miter;stroke:rgb(0%,0%,0%);stroke-opacity:1;stroke-miterlimit:10;" d="M 3.428582 -0.100012 C 3.428582 -0.0333373 3.428582 0.0333373 3.428582 0.100012 " transform="matrix(134.934165,0,0,-134.866827,835,416.5)"/>
<path style="fill:none;stroke-width:0.02;stroke-linecap:butt;stroke-linejoin:miter;stroke:rgb(0%,0%,0%);stroke-opacity:1;stroke-miterlimit:10;" d="M 4.285713 -0.100012 C 4.285713 -0.0333373 4.285713 0.0333373 4.285713 0.100012 " transform="matrix(134.934165,0,0,-134.866827,835,416.5)"/>
<path style="fill:none;stroke-width:0.02;stroke-linecap:butt;stroke-linejoin:miter;stroke:rgb(0%,0%,0%);stroke-opacity:1;stroke-miterlimit:10;" d="M 5.142844 -0.100012 C 5.142844 -0.0333373 5.142844 0.0333373 5.142844 0.100012 " transform="matrix(134.934165,0,0,-134.866827,835,416.5)"/>
<path style=" stroke:none;fill-rule:nonzero;fill:rgb(0%,0%,0%);fill-opacity:1;" d="M 10.386719 469.816406 C 11.246094 469.816406 12.152344 469.816406 12.152344 468.808594 C 12.152344 467.800781 11.246094 467.800781 10.386719 467.800781 C 1.296875 467.800781 -7.792969 467.800781 -16.882812 467.800781 C -17.742188 467.800781 -18.648438 467.800781 -18.648438 468.808594 C -18.648438 469.816406 -17.742188 469.816406 -16.882812 469.816406 C -7.792969 469.816406 1.296875 469.816406 10.386719 469.816406 Z M 10.386719 469.816406 "/>
<path style=" stroke:none;fill-rule:nonzero;fill:rgb(0%,0%,0%);fill-opacity:1;" d="M 38.183594 453.59375 C 38.636719 452.988281 38.636719 452.886719 38.636719 451.828125 C 34.554688 451.828125 30.46875 451.828125 26.386719 451.828125 C 20.238281 451.828125 20.136719 451.175781 19.933594 450.214844 C 19.515625 450.214844 19.09375 450.214844 18.675781 450.214844 C 18.121094 453.675781 17.566406 457.136719 17.011719 460.597656 C 17.429688 460.597656 17.851562 460.597656 18.269531 460.597656 C 18.421875 459.789062 18.875 456.617188 19.53125 456.011719 C 19.882812 455.707031 23.816406 455.707031 24.472656 455.707031 C 27.949219 455.707031 31.429688 455.707031 34.90625 455.707031 C 34.351562 456.515625 30.371094 462.007812 29.261719 463.667969 C 24.722656 470.472656 23.058594 477.476562 23.058594 482.613281 C 23.058594 483.117188 23.058594 485.386719 25.378906 485.386719 C 27.699219 485.386719 27.699219 483.117188 27.699219 482.613281 C 27.699219 481.757812 27.699219 480.902344 27.699219 480.046875 C 27.699219 477.273438 27.847656 474.503906 28.253906 471.78125 C 28.453125 470.625 29.160156 466.289062 31.378906 463.164062 C 33.644531 459.976562 35.914062 456.785156 38.183594 453.59375 Z M 38.183594 453.59375 "/>
<path style=" stroke:none;fill-rule:nonzero;fill:rgb(0%,0%,0%);fill-opacity:1;" d="M 126.398438 469.566406 C 127.257812 469.566406 128.164062 469.566406 128.164062 468.558594 C 128.164062 467.550781 127.257812 467.550781 126.398438 467.550781 C 117.308594 467.550781 108.21875 467.550781 99.125 467.550781 C 98.269531 467.550781 97.363281 467.550781 97.363281 468.558594 C 97.363281 469.566406 98.269531 469.566406 99.125 469.566406 C 108.21875 469.566406 117.308594 469.566406 126.398438 469.566406 Z M 126.398438 469.566406 "/>
<path style=" stroke:none;fill-rule:nonzero;fill:rgb(0%,0%,0%);fill-opacity:1;" d="M 137.558594 467.246094 C 137.558594 466.84375 137.558594 466.441406 137.558594 466.039062 C 137.558594 453.289062 143.808594 451.476562 146.378906 451.476562 C 147.589844 451.476562 149.707031 451.777344 150.816406 453.492188 C 150.058594 453.492188 148.042969 453.492188 148.042969 455.757812 C 148.042969 457.320312 149.253906 458.078125 150.363281 458.078125 C 151.167969 458.078125 152.683594 457.625 152.683594 455.660156 C 152.683594 452.636719 150.464844 450.214844 146.28125 450.214844 C 139.828125 450.214844 133.019531 456.714844 133.019531 467.851562 C 133.019531 481.304688 138.867188 484.882812 143.558594 484.882812 C 149.152344 484.882812 153.941406 480.144531 153.941406 473.496094 C 153.941406 467.097656 149.457031 462.257812 143.859375 462.257812 C 140.433594 462.257812 138.566406 464.828125 137.558594 467.246094 Z M 143.558594 483.472656 C 140.382812 483.472656 138.867188 480.449219 138.566406 479.691406 C 137.660156 477.324219 137.660156 473.292969 137.660156 472.386719 C 137.660156 468.457031 139.273438 463.417969 143.808594 463.417969 C 144.617188 463.417969 146.933594 463.417969 148.496094 466.542969 C 149.40625 468.40625 149.40625 470.976562 149.40625 473.445312 C 149.40625 475.863281 149.40625 478.382812 148.546875 480.195312 C 147.035156 483.21875 144.714844 483.472656 143.558594 483.472656 Z M 143.558594 483.472656 "/>
<path style=" stroke:none;fill-rule:nonzero;fill:rgb(0%,0%,0%);fill-opacity:1;" d="M 242.460938 469.566406 C 243.316406 469.566406 244.226562 469.566406 244.226562 468.558594 C 244.226562 467.550781 243.316406 467.550781 242.460938 467.550781 C 233.371094 467.550781 224.277344 467.550781 215.1875 467.550781 C 214.332031 467.550781 213.421875 467.550781 213.421875 468.558594 C 213.421875 469.566406 214.332031 469.566406 215.1875 469.566406 C 224.277344 469.566406 233.371094 469.566406 242.460938 469.566406 Z M 242.460938 469.566406 "/>
<path style=" stroke:none;fill-rule:nonzero;fill:rgb(0%,0%,0%);fill-opacity:1;" d="M 269.195312 473.644531 C 269.195312 467.648438 265.0625 462.613281 259.617188 462.613281 C 257.199219 462.613281 255.03125 463.417969 253.214844 465.179688 C 253.214844 461.90625 253.214844 458.632812 253.214844 455.355469 C 254.222656 455.660156 255.886719 456.011719 257.5 456.011719 C 263.703125 456.011719 267.230469 451.425781 267.230469 450.769531 C 267.230469 450.46875 267.078125 450.214844 266.726562 450.214844 C 266.675781 450.214844 266.574219 450.214844 266.324219 450.367188 C 265.316406 450.820312 262.84375 451.828125 259.46875 451.828125 C 257.449219 451.828125 255.132812 451.476562 252.761719 450.417969 C 252.359375 450.265625 252.257812 450.265625 252.15625 450.265625 C 251.652344 450.265625 251.652344 450.671875 251.652344 451.476562 C 251.652344 456.449219 251.652344 461.417969 251.652344 466.390625 C 251.652344 467.296875 251.652344 467.699219 252.359375 467.699219 C 252.710938 467.699219 252.8125 467.550781 253.015625 467.246094 C 253.570312 466.441406 255.433594 463.71875 259.519531 463.71875 C 262.140625 463.71875 263.398438 466.039062 263.800781 466.945312 C 264.609375 468.808594 264.710938 470.773438 264.710938 473.292969 C 264.710938 475.058594 264.710938 478.082031 263.5 480.195312 C 262.289062 482.160156 260.425781 483.472656 258.105469 483.472656 C 254.425781 483.472656 251.550781 480.800781 250.695312 477.828125 C 250.847656 477.878906 251 477.929688 251.550781 477.929688 C 253.214844 477.929688 254.074219 476.667969 254.074219 475.460938 C 254.074219 474.25 253.214844 472.992188 251.550781 472.992188 C 250.847656 472.992188 249.082031 473.34375 249.082031 475.660156 C 249.082031 479.996094 252.5625 484.882812 258.207031 484.882812 C 264.054688 484.882812 269.195312 480.046875 269.195312 473.644531 Z M 269.195312 473.644531 "/>
<path style=" stroke:none;fill-rule:nonzero;fill:rgb(0%,0%,0%);fill-opacity:1;" d="M 357.007812 469.289062 C 357.867188 469.289062 358.773438 469.289062 358.773438 468.28125 C 358.773438 467.273438 357.867188 467.273438 357.007812 467.273438 C 347.917969 467.273438 338.828125 467.273438 329.738281 467.273438 C 328.878906 467.273438 327.972656 467.273438 327.972656 468.28125 C 327.972656 469.289062 328.878906 469.289062 329.738281 469.289062 C 338.828125 469.289062 347.917969 469.289062 357.007812 469.289062 Z M 357.007812 469.289062 "/>
<path style=" stroke:none;fill-rule:nonzero;fill:rgb(0%,0%,0%);fill-opacity:1;" d="M 377.039062 476.015625 C 377.039062 477.476562 377.039062 478.9375 377.039062 480.398438 C 377.039062 482.210938 376.941406 482.765625 373.210938 482.765625 C 372.855469 482.765625 372.503906 482.765625 372.152344 482.765625 C 372.152344 483.285156 372.152344 483.808594 372.152344 484.328125 C 374.21875 484.175781 376.839844 484.175781 378.957031 484.175781 C 381.074219 484.175781 383.746094 484.175781 385.8125 484.328125 C 385.8125 483.808594 385.8125 483.285156 385.8125 482.765625 C 385.460938 482.765625 385.105469 482.765625 384.753906 482.765625 C 381.023438 482.765625 380.921875 482.210938 380.921875 480.398438 C 380.921875 478.9375 380.921875 477.476562 380.921875 476.015625 C 382.601562 476.015625 384.28125 476.015625 385.964844 476.015625 C 385.964844 475.492188 385.964844 474.972656 385.964844 474.453125 C 384.28125 474.453125 382.601562 474.453125 380.921875 474.453125 C 380.921875 466.808594 380.921875 459.167969 380.921875 451.527344 C 380.921875 450.519531 380.921875 450.214844 380.117188 450.214844 C 379.660156 450.214844 379.511719 450.214844 379.109375 450.820312 C 373.949219 458.699219 368.789062 466.574219 363.632812 474.453125 C 363.632812 474.972656 363.632812 475.492188 363.632812 476.015625 C 368.101562 476.015625 372.570312 476.015625 377.039062 476.015625 Z M 377.34375 474.453125 C 373.242188 474.453125 369.144531 474.453125 365.042969 474.453125 C 369.144531 468.1875 373.242188 461.921875 377.34375 455.660156 C 377.34375 461.921875 377.34375 468.1875 377.34375 474.453125 Z M 377.34375 474.453125 "/>
<path style=" stroke:none;fill-rule:nonzero;fill:rgb(0%,0%,0%);fill-opacity:1;" d="M 473.371094 469.566406 C 474.230469 469.566406 475.136719 469.566406 475.136719 468.558594 C 475.136719 467.550781 474.230469 467.550781 473.371094 467.550781 C 464.28125 467.550781 455.191406 467.550781 446.101562 467.550781 C 445.242188 467.550781 444.335938 467.550781 444.335938 468.558594 C 444.335938 469.566406 445.242188 469.566406 446.101562 469.566406 C 455.191406 469.566406 464.28125 469.566406 473.371094 469.566406 Z M 473.371094 469.566406 "/>
<path style=" stroke:none;fill-rule:nonzero;fill:rgb(0%,0%,0%);fill-opacity:1;" d="M 492.496094 466.039062 C 496.628906 464.675781 499.554688 461.152344 499.554688 457.171875 C 499.554688 453.039062 495.117188 450.214844 490.277344 450.214844 C 485.1875 450.214844 481.355469 453.238281 481.355469 457.070312 C 481.355469 458.730469 482.464844 459.6875 483.925781 459.6875 C 485.488281 459.6875 486.496094 458.582031 486.496094 457.121094 C 486.496094 454.601562 484.128906 454.601562 483.371094 454.601562 C 484.933594 452.132812 488.261719 451.476562 490.078125 451.476562 C 492.144531 451.476562 494.917969 452.585938 494.917969 457.121094 C 494.917969 457.722656 494.816406 460.648438 493.503906 462.863281 C 491.992188 465.28125 490.277344 465.433594 489.019531 465.484375 C 488.613281 465.535156 487.40625 465.636719 487.050781 465.636719 C 486.648438 465.683594 486.296875 465.734375 486.296875 466.238281 C 486.296875 466.792969 486.648438 466.792969 487.507812 466.792969 C 488.246094 466.792969 488.984375 466.792969 489.722656 466.792969 C 493.859375 466.792969 495.722656 470.21875 495.722656 475.15625 C 495.722656 482.011719 492.246094 483.472656 490.027344 483.472656 C 487.859375 483.472656 484.078125 482.613281 482.3125 479.640625 C 484.078125 479.894531 485.640625 478.785156 485.640625 476.871094 C 485.640625 475.058594 484.28125 474.050781 482.816406 474.050781 C 481.609375 474.050781 479.996094 474.753906 479.996094 476.972656 C 479.996094 481.558594 484.683594 484.882812 490.179688 484.882812 C 496.328125 484.882812 500.914062 480.296875 500.914062 475.15625 C 500.914062 471.027344 497.738281 467.097656 492.496094 466.039062 Z M 492.496094 466.039062 "/>
<path style=" stroke:none;fill-rule:nonzero;fill:rgb(0%,0%,0%);fill-opacity:1;" d="M 589.433594 469.011719 C 590.292969 469.011719 591.199219 469.011719 591.199219 468.003906 C 591.199219 466.996094 590.292969 466.996094 589.433594 466.996094 C 580.34375 466.996094 571.253906 466.996094 562.160156 466.996094 C 561.304688 466.996094 560.398438 466.996094 560.398438 468.003906 C 560.398438 469.011719 561.304688 469.011719 562.160156 469.011719 C 571.253906 469.011719 580.34375 469.011719 589.433594 469.011719 Z M 589.433594 469.011719 "/>
<path style=" stroke:none;fill-rule:nonzero;fill:rgb(0%,0%,0%);fill-opacity:1;" d="M 599.9375 479.894531 C 601.71875 478.164062 603.5 476.433594 605.28125 474.703125 C 613.144531 467.75 616.171875 465.03125 616.171875 459.992188 C 616.171875 454.246094 611.632812 450.214844 605.484375 450.214844 C 599.785156 450.214844 596.054688 454.851562 596.054688 459.335938 C 596.054688 462.160156 598.578125 462.160156 598.726562 462.160156 C 599.585938 462.160156 601.347656 461.554688 601.347656 459.488281 C 601.347656 458.175781 600.441406 456.867188 598.675781 456.867188 C 598.273438 456.867188 598.171875 456.867188 598.023438 456.917969 C 599.179688 453.644531 601.902344 451.777344 604.828125 451.777344 C 609.414062 451.777344 611.582031 455.859375 611.582031 459.992188 C 611.582031 464.023438 609.0625 468.003906 606.289062 471.125 C 603.0625 474.722656 599.835938 478.316406 596.609375 481.910156 C 596.054688 482.464844 596.054688 482.566406 596.054688 483.773438 C 602.289062 483.773438 608.523438 483.773438 614.757812 483.773438 C 615.230469 480.851562 615.699219 477.929688 616.171875 475.007812 C 615.75 475.007812 615.328125 475.007812 614.910156 475.007812 C 614.65625 476.519531 614.304688 478.734375 613.800781 479.492188 C 613.449219 479.894531 610.121094 479.894531 609.011719 479.894531 C 605.988281 479.894531 602.960938 479.894531 599.9375 479.894531 Z M 599.9375 479.894531 "/>
<path style=" stroke:none;fill-rule:nonzero;fill:rgb(0%,0%,0%);fill-opacity:1;" d="M 706.832031 469.011719 C 707.6875 469.011719 708.59375 469.011719 708.59375 468.003906 C 708.59375 466.996094 707.6875 466.996094 706.832031 466.996094 C 697.742188 466.996094 688.648438 466.996094 679.558594 466.996094 C 678.703125 466.996094 677.792969 466.996094 677.792969 468.003906 C 677.792969 469.011719 678.703125 469.011719 679.558594 469.011719 C 688.648438 469.011719 697.742188 469.011719 706.832031 469.011719 Z M 706.832031 469.011719 "/>
<path style=" stroke:none;fill-rule:nonzero;fill:rgb(0%,0%,0%);fill-opacity:1;" d="M 723.789062 451.527344 C 723.789062 450.316406 723.789062 450.214844 722.628906 450.214844 C 719.503906 453.441406 715.066406 453.441406 713.453125 453.441406 C 713.453125 453.960938 713.453125 454.484375 713.453125 455.003906 C 714.460938 455.003906 717.4375 455.003906 720.058594 453.691406 C 720.058594 462.394531 720.058594 471.09375 720.058594 479.792969 C 720.058594 481.605469 719.90625 482.210938 715.367188 482.210938 C 714.832031 482.210938 714.292969 482.210938 713.753906 482.210938 C 713.753906 482.734375 713.753906 483.253906 713.753906 483.773438 C 715.519531 483.621094 719.90625 483.621094 721.921875 483.621094 C 723.9375 483.621094 728.324219 483.621094 730.089844 483.773438 C 730.089844 483.253906 730.089844 482.734375 730.089844 482.210938 C 729.550781 482.210938 729.011719 482.210938 728.476562 482.210938 C 723.9375 482.210938 723.789062 481.65625 723.789062 479.792969 C 723.789062 470.371094 723.789062 460.949219 723.789062 451.527344 Z M 723.789062 451.527344 "/>
<path style=" stroke:none;fill-rule:nonzero;fill:rgb(0%,0%,0%);fill-opacity:1;" d="M 952.675781 451.527344 C 952.675781 450.316406 952.675781 450.214844 951.515625 450.214844 C 948.390625 453.441406 943.953125 453.441406 942.339844 453.441406 C 942.339844 453.960938 942.339844 454.484375 942.339844 455.003906 C 943.347656 455.003906 946.324219 455.003906 948.945312 453.691406 C 948.945312 462.394531 948.945312 471.09375 948.945312 479.792969 C 948.945312 481.605469 948.792969 482.210938 944.253906 482.210938 C 943.71875 482.210938 943.179688 482.210938 942.640625 482.210938 C 942.640625 482.734375 942.640625 483.253906 942.640625 483.773438 C 944.40625 483.621094 948.792969 483.621094 950.808594 483.621094 C 952.824219 483.621094 957.210938 483.621094 958.976562 483.773438 C 958.976562 483.253906 958.976562 482.734375 958.976562 482.210938 C 958.4375 482.210938 957.898438 482.210938 957.363281 482.210938 C 952.824219 482.210938 952.675781 481.65625 952.675781 479.792969 C 952.675781 470.371094 952.675781 460.949219 952.675781 451.527344 Z M 952.675781 451.527344 "/>
<path style=" stroke:none;fill-rule:nonzero;fill:rgb(0%,0%,0%);fill-opacity:1;" d="M 1060.140625 479.894531 C 1061.921875 478.164062 1063.703125 476.433594 1065.484375 474.703125 C 1073.347656 467.75 1076.371094 465.03125 1076.371094 459.992188 C 1076.371094 454.246094 1071.835938 450.214844 1065.6875 450.214844 C 1059.988281 450.214844 1056.257812 454.851562 1056.257812 459.335938 C 1056.257812 462.160156 1058.777344 462.160156 1058.929688 462.160156 C 1059.789062 462.160156 1061.550781 461.554688 1061.550781 459.488281 C 1061.550781 458.175781 1060.644531 456.867188 1058.878906 456.867188 C 1058.476562 456.867188 1058.375 456.867188 1058.226562 456.917969 C 1059.382812 453.644531 1062.105469 451.777344 1065.03125 451.777344 C 1069.617188 451.777344 1071.785156 455.859375 1071.785156 459.992188 C 1071.785156 464.023438 1069.265625 468.003906 1066.492188 471.125 C 1063.265625 474.722656 1060.039062 478.316406 1056.8125 481.910156 C 1056.257812 482.464844 1056.257812 482.566406 1056.257812 483.773438 C 1062.492188 483.773438 1068.726562 483.773438 1074.960938 483.773438 C 1075.433594 480.851562 1075.902344 477.929688 1076.371094 475.007812 C 1075.953125 475.007812 1075.53125 475.007812 1075.113281 475.007812 C 1074.859375 476.519531 1074.507812 478.734375 1074.003906 479.492188 C 1073.652344 479.894531 1070.324219 479.894531 1069.214844 479.894531 C 1066.191406 479.894531 1063.164062 479.894531 1060.140625 479.894531 Z M 1060.140625 479.894531 "/>
<path style=" stroke:none;fill-rule:nonzero;fill:rgb(0%,0%,0%);fill-opacity:1;" d="M 1184.015625 466.039062 C 1188.148438 464.675781 1191.074219 461.152344 1191.074219 457.171875 C 1191.074219 453.039062 1186.636719 450.214844 1181.796875 450.214844 C 1176.707031 450.214844 1172.875 453.238281 1172.875 457.070312 C 1172.875 458.730469 1173.984375 459.6875 1175.445312 459.6875 C 1177.007812 459.6875 1178.015625 458.582031 1178.015625 457.121094 C 1178.015625 454.601562 1175.648438 454.601562 1174.890625 454.601562 C 1176.453125 452.132812 1179.78125 451.476562 1181.59375 451.476562 C 1183.664062 451.476562 1186.433594 452.585938 1186.433594 457.121094 C 1186.433594 457.722656 1186.335938 460.648438 1185.023438 462.863281 C 1183.511719 465.28125 1181.796875 465.433594 1180.535156 465.484375 C 1180.132812 465.535156 1178.921875 465.636719 1178.570312 465.636719 C 1178.167969 465.683594 1177.816406 465.734375 1177.816406 466.238281 C 1177.816406 466.792969 1178.167969 466.792969 1179.023438 466.792969 C 1179.765625 466.792969 1180.503906 466.792969 1181.242188 466.792969 C 1185.375 466.792969 1187.242188 470.21875 1187.242188 475.15625 C 1187.242188 482.011719 1183.761719 483.472656 1181.546875 483.472656 C 1179.378906 483.472656 1175.597656 482.613281 1173.832031 479.640625 C 1175.597656 479.894531 1177.160156 478.785156 1177.160156 476.871094 C 1177.160156 475.058594 1175.796875 474.050781 1174.335938 474.050781 C 1173.125 474.050781 1171.511719 474.753906 1171.511719 476.972656 C 1171.511719 481.558594 1176.203125 484.882812 1181.695312 484.882812 C 1187.847656 484.882812 1192.433594 480.296875 1192.433594 475.15625 C 1192.433594 471.027344 1189.257812 467.097656 1184.015625 466.039062 Z M 1184.015625 466.039062 "/>
<path style=" stroke:none;fill-rule:nonzero;fill:rgb(0%,0%,0%);fill-opacity:1;" d="M 1299.875 476.015625 C 1299.875 477.476562 1299.875 478.9375 1299.875 480.398438 C 1299.875 482.210938 1299.773438 482.765625 1296.042969 482.765625 C 1295.691406 482.765625 1295.335938 482.765625 1294.984375 482.765625 C 1294.984375 483.285156 1294.984375 483.808594 1294.984375 484.328125 C 1297.050781 484.175781 1299.671875 484.175781 1301.789062 484.175781 C 1303.90625 484.175781 1306.578125 484.175781 1308.644531 484.328125 C 1308.644531 483.808594 1308.644531 483.285156 1308.644531 482.765625 C 1308.292969 482.765625 1307.941406 482.765625 1307.585938 482.765625 C 1303.855469 482.765625 1303.757812 482.210938 1303.757812 480.398438 C 1303.757812 478.9375 1303.757812 477.476562 1303.757812 476.015625 C 1305.4375 476.015625 1307.117188 476.015625 1308.796875 476.015625 C 1308.796875 475.492188 1308.796875 474.972656 1308.796875 474.453125 C 1307.117188 474.453125 1305.4375 474.453125 1303.757812 474.453125 C 1303.757812 466.808594 1303.757812 459.167969 1303.757812 451.527344 C 1303.757812 450.519531 1303.757812 450.214844 1302.949219 450.214844 C 1302.496094 450.214844 1302.34375 450.214844 1301.941406 450.820312 C 1296.78125 458.699219 1291.625 466.574219 1286.464844 474.453125 C 1286.464844 474.972656 1286.464844 475.492188 1286.464844 476.015625 C 1290.933594 476.015625 1295.40625 476.015625 1299.875 476.015625 Z M 1300.175781 474.453125 C 1296.078125 474.453125 1291.976562 474.453125 1287.875 474.453125 C 1291.976562 468.1875 1296.078125 461.921875 1300.175781 455.660156 C 1300.175781 461.921875 1300.175781 468.1875 1300.175781 474.453125 Z M 1300.175781 474.453125 "/>
<path style=" stroke:none;fill-rule:nonzero;fill:rgb(0%,0%,0%);fill-opacity:1;" d="M 1423.347656 473.644531 C 1423.347656 467.648438 1419.210938 462.613281 1413.769531 462.613281 C 1411.347656 462.613281 1409.179688 463.417969 1407.367188 465.179688 C 1407.367188 461.90625 1407.367188 458.632812 1407.367188 455.355469 C 1408.375 455.660156 1410.039062 456.011719 1411.652344 456.011719 C 1417.851562 456.011719 1421.378906 451.425781 1421.378906 450.769531 C 1421.378906 450.46875 1421.230469 450.214844 1420.875 450.214844 C 1420.824219 450.214844 1420.726562 450.214844 1420.472656 450.367188 C 1419.464844 450.820312 1416.996094 451.828125 1413.617188 451.828125 C 1411.601562 451.828125 1409.28125 451.476562 1406.914062 450.417969 C 1406.507812 450.265625 1406.40625 450.265625 1406.308594 450.265625 C 1405.804688 450.265625 1405.804688 450.671875 1405.804688 451.476562 C 1405.804688 456.449219 1405.804688 461.417969 1405.804688 466.390625 C 1405.804688 467.296875 1405.804688 467.699219 1406.507812 467.699219 C 1406.863281 467.699219 1406.960938 467.550781 1407.164062 467.246094 C 1407.71875 466.441406 1409.585938 463.71875 1413.667969 463.71875 C 1416.289062 463.71875 1417.550781 466.039062 1417.953125 466.945312 C 1418.757812 468.808594 1418.859375 470.773438 1418.859375 473.292969 C 1418.859375 475.058594 1418.859375 478.082031 1417.648438 480.195312 C 1416.441406 482.160156 1414.574219 483.472656 1412.253906 483.472656 C 1408.574219 483.472656 1405.703125 480.800781 1404.84375 477.828125 C 1404.996094 477.878906 1405.148438 477.929688 1405.703125 477.929688 C 1407.367188 477.929688 1408.222656 476.667969 1408.222656 475.460938 C 1408.222656 474.25 1407.367188 472.992188 1405.703125 472.992188 C 1404.996094 472.992188 1403.230469 473.34375 1403.230469 475.660156 C 1403.230469 479.996094 1406.710938 484.882812 1412.355469 484.882812 C 1418.203125 484.882812 1423.347656 480.046875 1423.347656 473.644531 Z M 1423.347656 473.644531 "/>
<path style=" stroke:none;fill-rule:nonzero;fill:rgb(0%,0%,0%);fill-opacity:1;" d="M 1523.023438 467.246094 C 1523.023438 466.84375 1523.023438 466.441406 1523.023438 466.039062 C 1523.023438 453.289062 1529.273438 451.476562 1531.847656 451.476562 C 1533.054688 451.476562 1535.171875 451.777344 1536.28125 453.492188 C 1535.527344 453.492188 1533.507812 453.492188 1533.507812 455.757812 C 1533.507812 457.320312 1534.71875 458.078125 1535.828125 458.078125 C 1536.636719 458.078125 1538.148438 457.625 1538.148438 455.660156 C 1538.148438 452.636719 1535.929688 450.214844 1531.746094 450.214844 C 1525.292969 450.214844 1518.488281 456.714844 1518.488281 467.851562 C 1518.488281 481.304688 1524.335938 484.882812 1529.023438 484.882812 C 1534.617188 484.882812 1539.40625 480.144531 1539.40625 473.496094 C 1539.40625 467.097656 1534.921875 462.257812 1529.324219 462.257812 C 1525.898438 462.257812 1524.03125 464.828125 1523.023438 467.246094 Z M 1529.023438 483.472656 C 1525.847656 483.472656 1524.335938 480.449219 1524.03125 479.691406 C 1523.125 477.324219 1523.125 473.292969 1523.125 472.386719 C 1523.125 468.457031 1524.738281 463.417969 1529.273438 463.417969 C 1530.082031 463.417969 1532.398438 463.417969 1533.964844 466.542969 C 1534.871094 468.40625 1534.871094 470.976562 1534.871094 473.445312 C 1534.871094 475.863281 1534.871094 478.382812 1534.011719 480.195312 C 1532.5 483.21875 1530.183594 483.472656 1529.023438 483.472656 Z M 1529.023438 483.472656 "/>
<path style="fill:none;stroke-width:0.02;stroke-linecap:butt;stroke-linejoin:miter;stroke:rgb(0%,0%,0%);stroke-opacity:1;stroke-miterlimit:10;" d="M 0 -3.000008 C 0 -1.116669 0 0.766671 0 2.65001 " transform="matrix(134.934165,0,0,-134.866827,835,416.5)"/>
<path style="fill-rule:nonzero;fill:rgb(0%,0%,0%);fill-opacity:1;stroke-width:0.02;stroke-linecap:butt;stroke-linejoin:miter;stroke:rgb(0%,0%,0%);stroke-opacity:1;stroke-miterlimit:10;" d="M 0 3.000008 C -0.0583328 2.883342 -0.116666 2.766676 -0.174999 2.65001 C -0.0583328 2.65001 0.0583328 2.65001 0.174999 2.65001 C 0.116666 2.766676 0.0583328 2.883342 0 3.000008 Z M 0 3.000008 " transform="matrix(134.934165,0,0,-134.866827,835,416.5)"/>
<path style="fill:none;stroke-width:0.02;stroke-linecap:butt;stroke-linejoin:miter;stroke:rgb(0%,0%,0%);stroke-opacity:1;stroke-miterlimit:10;" d="M 0.0999909 -3.000008 C 0.0333206 -3.000008 -0.0333206 -3.000008 -0.0999909 -3.000008 " transform="matrix(134.934165,0,0,-134.866827,835,416.5)"/>
<path style="fill:none;stroke-width:0.02;stroke-linecap:butt;stroke-linejoin:miter;stroke:rgb(0%,0%,0%);stroke-opacity:1;stroke-miterlimit:10;" d="M 0.0999909 -2.249992 C 0.0333206 -2.249992 -0.0333206 -2.249992 -0.0999909 -2.249992 " transform="matrix(134.934165,0,0,-134.866827,835,416.5)"/>
<path style="fill:none;stroke-width:0.02;stroke-linecap:butt;stroke-linejoin:miter;stroke:rgb(0%,0%,0%);stroke-opacity:1;stroke-miterlimit:10;" d="M 0.0999909 -1.500004 C 0.0333206 -1.500004 -0.0333206 -1.500004 -0.0999909 -1.500004 " transform="matrix(134.934165,0,0,-134.866827,835,416.5)"/>
<path style="fill:none;stroke-width:0.02;stroke-linecap:butt;stroke-linejoin:miter;stroke:rgb(0%,0%,0%);stroke-opacity:1;stroke-miterlimit:10;" d="M 0.0999909 -0.749988 C 0.0333206 -0.749988 -0.0333206 -0.749988 -0.0999909 -0.749988 " transform="matrix(134.934165,0,0,-134.866827,835,416.5)"/>
<path style="fill:none;stroke-width:0.02;stroke-linecap:butt;stroke-linejoin:miter;stroke:rgb(0%,0%,0%);stroke-opacity:1;stroke-miterlimit:10;" d="M 0.0999909 0.749988 C 0.0333206 0.749988 -0.0333206 0.749988 -0.0999909 0.749988 " transform="matrix(134.934165,0,0,-134.866827,835,416.5)"/>
<path style="fill:none;stroke-width:0.02;stroke-linecap:butt;stroke-linejoin:miter;stroke:rgb(0%,0%,0%);stroke-opacity:1;stroke-miterlimit:10;" d="M 0.0999909 1.500004 C 0.0333206 1.500004 -0.0333206 1.500004 -0.0999909 1.500004 " transform="matrix(134.934165,0,0,-134.866827,835,416.5)"/>
<path style="fill:none;stroke-width:0.02;stroke-linecap:butt;stroke-linejoin:miter;stroke:rgb(0%,0%,0%);stroke-opacity:1;stroke-miterlimit:10;" d="M 0.0999909 2.249992 C 0.0333206 2.249992 -0.0333206 2.249992 -0.0999909 2.249992 " transform="matrix(134.934165,0,0,-134.866827,835,416.5)"/>
<path style=" stroke:none;fill-rule:nonzero;fill:rgb(0%,0%,0%);fill-opacity:1;" d="M 772.3125 823.117188 C 773.167969 823.117188 774.078125 823.117188 774.078125 822.109375 C 774.078125 821.101562 773.167969 821.101562 772.3125 821.101562 C 763.222656 821.101562 754.128906 821.101562 745.039062 821.101562 C 744.183594 821.101562 743.273438 821.101562 743.273438 822.109375 C 743.273438 823.117188 744.183594 823.117188 745.039062 823.117188 C 754.128906 823.117188 763.222656 823.117188 772.3125 823.117188 Z M 772.3125 823.117188 "/>
<path style=" stroke:none;fill-rule:nonzero;fill:rgb(0%,0%,0%);fill-opacity:1;" d="M 792.34375 829.84375 C 792.34375 831.304688 792.34375 832.765625 792.34375 834.226562 C 792.34375 836.039062 792.242188 836.59375 788.511719 836.59375 C 788.160156 836.59375 787.808594 836.59375 787.453125 836.59375 C 787.453125 837.113281 787.453125 837.636719 787.453125 838.15625 C 789.519531 838.003906 792.140625 838.003906 794.257812 838.003906 C 796.375 838.003906 799.046875 838.003906 801.113281 838.15625 C 801.113281 837.636719 801.113281 837.113281 801.113281 836.59375 C 800.761719 836.59375 800.410156 836.59375 800.054688 836.59375 C 796.324219 836.59375 796.226562 836.039062 796.226562 834.226562 C 796.226562 832.765625 796.226562 831.304688 796.226562 829.84375 C 797.90625 829.84375 799.585938 829.84375 801.265625 829.84375 C 801.265625 829.320312 801.265625 828.800781 801.265625 828.28125 C 799.585938 828.28125 797.90625 828.28125 796.226562 828.28125 C 796.226562 820.636719 796.226562 812.996094 796.226562 805.355469 C 796.226562 804.347656 796.226562 804.042969 795.417969 804.042969 C 794.964844 804.042969 794.8125 804.042969 794.410156 804.648438 C 789.25 812.527344 784.09375 820.402344 778.933594 828.28125 C 778.933594 828.800781 778.933594 829.320312 778.933594 829.84375 C 783.402344 829.84375 787.875 829.84375 792.34375 829.84375 Z M 792.644531 828.28125 C 788.546875 828.28125 784.445312 828.28125 780.347656 828.28125 C 784.445312 822.015625 788.546875 815.75 792.644531 809.488281 C 792.644531 815.75 792.644531 822.015625 792.644531 828.28125 Z M 792.644531 828.28125 "/>
<path style=" stroke:none;fill-rule:nonzero;fill:rgb(0%,0%,0%);fill-opacity:1;" d="M 773.722656 721.964844 C 774.582031 721.964844 775.488281 721.964844 775.488281 720.957031 C 775.488281 719.949219 774.582031 719.949219 773.722656 719.949219 C 764.632812 719.949219 755.542969 719.949219 746.453125 719.949219 C 745.59375 719.949219 744.6875 719.949219 744.6875 720.957031 C 744.6875 721.964844 745.59375 721.964844 746.453125 721.964844 C 755.542969 721.964844 764.632812 721.964844 773.722656 721.964844 Z M 773.722656 721.964844 "/>
<path style=" stroke:none;fill-rule:nonzero;fill:rgb(0%,0%,0%);fill-opacity:1;" d="M 792.847656 718.4375 C 796.980469 717.078125 799.90625 713.550781 799.90625 709.570312 C 799.90625 705.4375 795.46875 702.617188 790.628906 702.617188 C 785.539062 702.617188 781.707031 705.640625 781.707031 709.46875 C 781.707031 711.132812 782.816406 712.089844 784.277344 712.089844 C 785.839844 712.089844 786.847656 710.980469 786.847656 709.519531 C 786.847656 707 784.480469 707 783.722656 707 C 785.285156 704.53125 788.613281 703.878906 790.429688 703.878906 C 792.496094 703.878906 795.265625 704.984375 795.265625 709.519531 C 795.265625 710.125 795.167969 713.046875 793.855469 715.265625 C 792.34375 717.683594 790.628906 717.835938 789.371094 717.882812 C 788.964844 717.933594 787.757812 718.035156 787.402344 718.035156 C 787 718.085938 786.648438 718.136719 786.648438 718.640625 C 786.648438 719.195312 787 719.195312 787.855469 719.195312 C 788.597656 719.195312 789.335938 719.195312 790.074219 719.195312 C 794.207031 719.195312 796.074219 722.621094 796.074219 727.558594 C 796.074219 734.410156 792.597656 735.871094 790.378906 735.871094 C 788.210938 735.871094 784.429688 735.015625 782.664062 732.042969 C 784.429688 732.296875 785.992188 731.1875 785.992188 729.273438 C 785.992188 727.457031 784.628906 726.449219 783.167969 726.449219 C 781.957031 726.449219 780.347656 727.15625 780.347656 729.371094 C 780.347656 733.957031 785.035156 737.28125 790.527344 737.28125 C 796.679688 737.28125 801.265625 732.699219 801.265625 727.558594 C 801.265625 723.425781 798.089844 719.496094 792.847656 718.4375 Z M 792.847656 718.4375 "/>
<path style=" stroke:none;fill-rule:nonzero;fill:rgb(0%,0%,0%);fill-opacity:1;" d="M 774.53125 620.816406 C 775.386719 620.816406 776.292969 620.816406 776.292969 619.808594 C 776.292969 618.800781 775.386719 618.800781 774.53125 618.800781 C 765.441406 618.800781 756.347656 618.800781 747.257812 618.800781 C 746.402344 618.800781 745.492188 618.800781 745.492188 619.808594 C 745.492188 620.816406 746.402344 620.816406 747.257812 620.816406 C 756.347656 620.816406 765.441406 620.816406 774.53125 620.816406 Z M 774.53125 620.816406 "/>
<path style=" stroke:none;fill-rule:nonzero;fill:rgb(0%,0%,0%);fill-opacity:1;" d="M 785.035156 631.699219 C 786.816406 629.96875 788.597656 628.238281 790.378906 626.507812 C 798.242188 619.554688 801.265625 616.835938 801.265625 611.796875 C 801.265625 606.050781 796.730469 602.023438 790.578125 602.023438 C 784.882812 602.023438 781.152344 606.65625 781.152344 611.140625 C 781.152344 613.964844 783.671875 613.964844 783.824219 613.964844 C 784.679688 613.964844 786.445312 613.359375 786.445312 611.292969 C 786.445312 609.984375 785.539062 608.671875 783.773438 608.671875 C 783.371094 608.671875 783.269531 608.671875 783.117188 608.722656 C 784.277344 605.449219 787 603.582031 789.925781 603.582031 C 794.511719 603.582031 796.679688 607.664062 796.679688 611.796875 C 796.679688 615.828125 794.160156 619.808594 791.386719 622.933594 C 788.160156 626.527344 784.933594 630.121094 781.707031 633.714844 C 781.152344 634.269531 781.152344 634.371094 781.152344 635.578125 C 787.386719 635.578125 793.621094 635.578125 799.855469 635.578125 C 800.324219 632.65625 800.796875 629.734375 801.265625 626.8125 C 800.847656 626.8125 800.425781 626.8125 800.007812 626.8125 C 799.753906 628.324219 799.402344 630.539062 798.898438 631.296875 C 798.542969 631.699219 795.21875 631.699219 794.109375 631.699219 C 791.082031 631.699219 788.058594 631.699219 785.035156 631.699219 Z M 785.035156 631.699219 "/>
<path style=" stroke:none;fill-rule:nonzero;fill:rgb(0%,0%,0%);fill-opacity:1;" d="M 778.007812 519.664062 C 778.867188 519.664062 779.773438 519.664062 779.773438 518.65625 C 779.773438 517.648438 778.867188 517.648438 778.007812 517.648438 C 768.917969 517.648438 759.828125 517.648438 750.734375 517.648438 C 749.878906 517.648438 748.972656 517.648438 748.972656 518.65625 C 748.972656 519.664062 749.878906 519.664062 750.734375 519.664062 C 759.828125 519.664062 768.917969 519.664062 778.007812 519.664062 Z M 778.007812 519.664062 "/>
<path style=" stroke:none;fill-rule:nonzero;fill:rgb(0%,0%,0%);fill-opacity:1;" d="M 794.964844 502.179688 C 794.964844 500.972656 794.964844 500.871094 793.804688 500.871094 C 790.679688 504.097656 786.242188 504.097656 784.628906 504.097656 C 784.628906 504.617188 784.628906 505.136719 784.628906 505.660156 C 785.640625 505.660156 788.613281 505.660156 791.234375 504.347656 C 791.234375 513.046875 791.234375 521.75 791.234375 530.449219 C 791.234375 532.261719 791.082031 532.867188 786.546875 532.867188 C 786.007812 532.867188 785.472656 532.867188 784.933594 532.867188 C 784.933594 533.386719 784.933594 533.90625 784.933594 534.429688 C 786.699219 534.277344 791.082031 534.277344 793.101562 534.277344 C 795.117188 534.277344 799.503906 534.277344 801.265625 534.429688 C 801.265625 533.90625 801.265625 533.386719 801.265625 532.867188 C 800.730469 532.867188 800.191406 532.867188 799.652344 532.867188 C 795.117188 532.867188 794.964844 532.3125 794.964844 530.449219 C 794.964844 521.027344 794.964844 511.605469 794.964844 502.179688 Z M 794.964844 502.179688 "/>
<path style=" stroke:none;fill-rule:nonzero;fill:rgb(0%,0%,0%);fill-opacity:1;" d="M 794.964844 299.882812 C 794.964844 298.671875 794.964844 298.570312 793.804688 298.570312 C 790.679688 301.796875 786.242188 301.796875 784.628906 301.796875 C 784.628906 302.316406 784.628906 302.835938 784.628906 303.359375 C 785.640625 303.359375 788.613281 303.359375 791.234375 302.046875 C 791.234375 310.746094 791.234375 319.449219 791.234375 328.148438 C 791.234375 329.960938 791.082031 330.566406 786.546875 330.566406 C 786.007812 330.566406 785.472656 330.566406 784.933594 330.566406 C 784.933594 331.085938 784.933594 331.609375 784.933594 332.128906 C 786.699219 331.976562 791.082031 331.976562 793.101562 331.976562 C 795.117188 331.976562 799.503906 331.976562 801.265625 332.128906 C 801.265625 331.609375 801.265625 331.085938 801.265625 330.566406 C 800.730469 330.566406 800.191406 330.566406 799.652344 330.566406 C 795.117188 330.566406 794.964844 330.011719 794.964844 328.148438 C 794.964844 318.726562 794.964844 309.304688 794.964844 299.882812 Z M 794.964844 299.882812 "/>
<path style=" stroke:none;fill-rule:nonzero;fill:rgb(0%,0%,0%);fill-opacity:1;" d="M 785.035156 227.097656 C 786.816406 225.367188 788.597656 223.640625 790.378906 221.910156 C 798.242188 214.957031 801.265625 212.234375 801.265625 207.195312 C 801.265625 201.453125 796.730469 197.421875 790.578125 197.421875 C 784.882812 197.421875 781.152344 202.058594 781.152344 206.542969 C 781.152344 209.363281 783.671875 209.363281 783.824219 209.363281 C 784.679688 209.363281 786.445312 208.757812 786.445312 206.691406 C 786.445312 205.382812 785.539062 204.070312 783.773438 204.070312 C 783.371094 204.070312 783.269531 204.070312 783.117188 204.121094 C 784.277344 200.847656 787 198.984375 789.925781 198.984375 C 794.511719 198.984375 796.679688 203.0625 796.679688 207.195312 C 796.679688 211.226562 794.160156 215.207031 791.386719 218.332031 C 788.160156 221.925781 784.933594 225.519531 781.707031 229.113281 C 781.152344 229.667969 781.152344 229.769531 781.152344 230.976562 C 787.386719 230.976562 793.621094 230.976562 799.855469 230.976562 C 800.324219 228.054688 800.796875 225.132812 801.265625 222.210938 C 800.847656 222.210938 800.425781 222.210938 800.007812 222.210938 C 799.753906 223.722656 799.402344 225.941406 798.898438 226.695312 C 798.542969 227.097656 795.21875 227.097656 794.109375 227.097656 C 791.082031 227.097656 788.058594 227.097656 785.035156 227.097656 Z M 785.035156 227.097656 "/>
<path style=" stroke:none;fill-rule:nonzero;fill:rgb(0%,0%,0%);fill-opacity:1;" d="M 792.847656 111.539062 C 796.980469 110.175781 799.90625 106.652344 799.90625 102.671875 C 799.90625 98.539062 795.46875 95.71875 790.628906 95.71875 C 785.539062 95.71875 781.707031 98.738281 781.707031 102.570312 C 781.707031 104.230469 782.816406 105.1875 784.277344 105.1875 C 785.839844 105.1875 786.847656 104.082031 786.847656 102.621094 C 786.847656 100.101562 784.480469 100.101562 783.722656 100.101562 C 785.285156 97.632812 788.613281 96.976562 790.429688 96.976562 C 792.496094 96.976562 795.265625 98.085938 795.265625 102.621094 C 795.265625 103.222656 795.167969 106.148438 793.855469 108.363281 C 792.34375 110.78125 790.628906 110.933594 789.371094 110.984375 C 788.964844 111.035156 787.757812 111.136719 787.402344 111.136719 C 787 111.183594 786.648438 111.234375 786.648438 111.738281 C 786.648438 112.292969 787 112.292969 787.855469 112.292969 C 788.597656 112.292969 789.335938 112.292969 790.074219 112.292969 C 794.207031 112.292969 796.074219 115.71875 796.074219 120.65625 C 796.074219 127.511719 792.597656 128.972656 790.378906 128.972656 C 788.210938 128.972656 784.429688 128.113281 782.664062 125.140625 C 784.429688 125.394531 785.992188 124.285156 785.992188 122.371094 C 785.992188 120.558594 784.628906 119.550781 783.167969 119.550781 C 781.957031 119.550781 780.347656 120.253906 780.347656 122.472656 C 780.347656 127.058594 785.035156 130.382812 790.527344 130.382812 C 796.679688 130.382812 801.265625 125.796875 801.265625 120.65625 C 801.265625 116.527344 798.089844 112.597656 792.847656 111.539062 Z M 792.847656 111.539062 "/>
<path style="fill:none;stroke-width:0.0428571;stroke-linecap:butt;stroke-linejoin:miter;stroke:rgb(98.823529%,23.921569%,1.176471%);stroke-opacity:1;stroke-miterlimit:10;" d="M 0 0 C 0.214283 0 0.428565 0 0.642848 0 " transform="matrix(134.934165,0,0,-134.866827,835,416.5)"/>
<path style=" stroke:none;fill-rule:nonzero;fill:rgb(98.823529%,23.921569%,1.176471%);fill-opacity:1;" d="M 950.65625 416.5 C 941.019531 411.683594 931.382812 406.867188 921.742188 402.050781 C 921.742188 411.683594 921.742188 421.316406 921.742188 430.949219 C 931.382812 426.132812 941.019531 421.316406 950.65625 416.5 Z M 950.65625 416.5 "/>
<path style="fill:none;stroke-width:0.0375;stroke-linecap:butt;stroke-linejoin:miter;stroke:rgb(1.176471%,59.607843%,98.823529%);stroke-opacity:1;stroke-miterlimit:10;" d="M 0 0 C 0 0.187511 0 0.374994 0 0.562505 " transform="matrix(134.934165,0,0,-134.866827,835,416.5)"/>
<path style=" stroke:none;fill-rule:nonzero;fill:rgb(1.176471%,59.607843%,98.823529%);fill-opacity:1;" d="M 835 315.351562 C 830.785156 323.777344 826.566406 332.207031 822.351562 340.636719 C 830.785156 340.636719 839.214844 340.636719 847.648438 340.636719 C 843.433594 332.207031 839.214844 323.777344 835 315.351562 Z M 835 315.351562 "/>
</g>
</svg>
